<svg width="24" height="23" viewBox="0 0 24 23" fill="none" xmlns="http://www.w3.org/2000/svg">
<path d="M17.7506 22.8728H6.08392C4.18809 22.8728 2.45892 21.4145 2.14642 19.5499L0.761006 11.2478C0.53184 9.95615 1.16726 8.2999 2.19851 7.47699L9.41726 1.69574C10.8131 0.570738 13.011 0.581154 14.4173 1.70615L21.636 7.47699C22.6568 8.2999 23.2818 9.95615 23.0735 11.2478L21.6881 19.5395C21.3756 21.3832 19.6048 22.8728 17.7506 22.8728ZM11.9068 2.4249C11.3548 2.4249 10.8027 2.59157 10.3964 2.91449L3.17767 8.70615C2.59434 9.1749 2.17767 10.2582 2.30267 10.9978L3.68809 19.2895C3.87559 20.3832 4.96934 21.3103 6.08392 21.3103H17.7506C18.8652 21.3103 19.9589 20.3832 20.1464 19.2791L21.5318 10.9874C21.6464 10.2582 21.2298 9.15407 20.6568 8.69574L13.4381 2.9249C13.0214 2.59157 12.4589 2.4249 11.9068 2.4249Z" fill="#627A69"/>
</svg>
