<svg width="21" height="21" viewBox="0 0 21 21" fill="none" xmlns="http://www.w3.org/2000/svg">
<path d="M20.8206 1.05345C20.8097 0.957759 20.7888 0.863484 20.7581 0.772202V0.678452C20.7081 0.562523 20.6375 0.456636 20.5497 0.365952C20.4613 0.282895 20.3591 0.215916 20.2477 0.168036H20.1539C20.0579 0.0947127 19.9481 0.0415638 19.831 0.0117854H19.7789C19.6753 -0.00392847 19.57 -0.00392847 19.4664 0.0117854L0.716406 6.26179C0.508002 6.33028 0.326543 6.46283 0.197901 6.64053C0.0692583 6.81822 0 7.03199 0 7.25137C0 7.47074 0.0692583 7.68451 0.197901 7.86221C0.326543 8.03991 0.508002 8.17245 0.716406 8.24095L9.60182 11.1993L12.5602 20.0847C12.6287 20.2931 12.7612 20.4746 12.9389 20.6032C13.1166 20.7318 13.3304 20.8011 13.5497 20.8011C13.7691 20.8011 13.9829 20.7318 14.1606 20.6032C14.3383 20.4746 14.4708 20.2931 14.5393 20.0847L20.7893 1.3347C20.8125 1.24281 20.823 1.14819 20.8206 1.05345ZM15.9247 3.43887L10.1227 9.24095L4.32057 7.30345L15.9247 3.43887ZM13.5289 16.5118L11.5914 10.7097L17.3935 4.90762L13.5289 16.5118Z" fill="#627A69"/>
</svg>
