<svg width="22" height="24" viewBox="0 0 22 24" fill="none" xmlns="http://www.w3.org/2000/svg">
<mask id="path-1-inside-1_1_3045" fill="white">
<path d="M20.8669 15.7391L18.7219 13.5822V8.26736C18.7504 6.29377 18.0639 4.37649 16.7892 2.86955C15.5144 1.36261 13.7375 0.367784 11.7864 0.0687551C10.6541 -0.0803605 9.50306 0.0137182 8.41001 0.344714C7.31695 0.675709 6.30705 1.23601 5.44769 1.98823C4.58833 2.74045 3.89927 3.6673 3.4265 4.70692C2.95372 5.74654 2.7081 6.87504 2.70601 8.01711V13.5822L0.561027 15.7391C0.291601 16.013 0.108893 16.3602 0.035745 16.7374C-0.0374029 17.1146 0.00225464 17.505 0.14976 17.8598C0.297265 18.2146 0.546073 18.518 0.86508 18.7321C1.18409 18.9463 1.55914 19.0616 1.94335 19.0638H5.94732V19.4689C6.00298 20.6787 6.53594 21.8171 7.42941 22.6346C8.32289 23.4521 9.504 23.8822 10.714 23.8304C11.9239 23.8822 13.105 23.4521 13.9985 22.6346C14.892 21.8171 15.4249 20.6787 15.4806 19.4689V19.0638H19.4845C19.8688 19.0616 20.2438 18.9463 20.5628 18.7321C20.8818 18.518 21.1306 18.2146 21.2781 17.8598C21.4256 17.505 21.4653 17.1146 21.3922 16.7374C21.319 16.3602 21.1363 16.013 20.8669 15.7391ZM13.0973 19.4689C13.0312 20.0421 12.7465 20.5677 12.3025 20.9362C11.8585 21.3047 11.2895 21.4877 10.714 21.4471C10.1384 21.4877 9.56936 21.3047 9.12538 20.9362C8.68141 20.5677 8.39672 20.0421 8.33063 19.4689V19.0638H13.0973V19.4689ZM2.98009 16.6805L4.38625 15.2743C4.60929 15.0526 4.78624 14.7889 4.90691 14.4985C5.02758 14.2081 5.08957 13.8966 5.08933 13.5822V8.01711C5.08997 7.21322 5.26257 6.41877 5.59553 5.68708C5.9285 4.95538 6.41412 4.30337 7.01981 3.77481C7.61733 3.23342 8.32536 2.82834 9.09489 2.5876C9.86443 2.34686 10.6771 2.27622 11.4766 2.38057C12.8547 2.60434 14.1056 3.31842 14.999 4.39135C15.8924 5.46428 16.3681 6.82383 16.3386 8.21969V13.5822C16.3368 13.8958 16.3969 14.2067 16.5155 14.4971C16.6341 14.7875 16.8088 15.0516 17.0297 15.2743L18.4478 16.6805H2.98009Z"/>
</mask>
<path d="M20.8669 15.7391L23.0057 13.6353L22.9999 13.6295L22.9941 13.6236L20.8669 15.7391ZM18.7219 13.5822H15.7219V14.8199L16.5947 15.6976L18.7219 13.5822ZM18.7219 8.26736L15.7222 8.22399L15.7219 8.24567V8.26736H18.7219ZM11.7864 0.0687551L12.2409 -2.89662L12.2096 -2.90142L12.1781 -2.90556L11.7864 0.0687551ZM2.70601 8.01711L-0.293989 8.01164V8.01711H2.70601ZM2.70601 13.5822L4.8332 15.6976L5.70601 14.8199V13.5822H2.70601ZM0.561027 15.7391L-1.56616 13.6236L-1.57198 13.6295L-1.57776 13.6353L0.561027 15.7391ZM1.94335 19.0638L1.92651 22.0637L1.93493 22.0638H1.94335V19.0638ZM5.94732 19.0638H8.94732V16.0638H5.94732V19.0638ZM5.94732 19.4689H2.94732V19.5379L2.95049 19.6068L5.94732 19.4689ZM10.714 23.8304L10.8421 20.8332L10.714 20.8277L10.5858 20.8332L10.714 23.8304ZM15.4806 19.4689L18.4774 19.6068L18.4806 19.5379V19.4689H15.4806ZM15.4806 19.0638V16.0638H12.4806V19.0638H15.4806ZM19.4845 19.0638V22.0638H19.493L19.5014 22.0637L19.4845 19.0638ZM13.0973 19.4689L16.0775 19.8126L16.0973 19.6413V19.4689H13.0973ZM10.714 21.4471L10.9252 18.4545L10.714 18.4396L10.5027 18.4545L10.714 21.4471ZM8.33063 19.4689H5.33063V19.6413L5.35038 19.8126L8.33063 19.4689ZM8.33063 19.0638V16.0638H5.33063V19.0638H8.33063ZM13.0973 19.0638H16.0973V16.0638H13.0973V19.0638ZM2.98009 16.6805L0.858771 14.5591L-4.26255 19.6805H2.98009V16.6805ZM4.38625 15.2743L2.27124 13.1467L2.26493 13.153L4.38625 15.2743ZM5.08933 13.5822H2.08932L2.08933 13.5845L5.08933 13.5822ZM5.08933 8.01711L2.08933 8.01469V8.01711H5.08933ZM7.01981 3.77481L8.99232 6.03516L9.01341 6.01676L9.03414 5.99798L7.01981 3.77481ZM11.4766 2.38057L11.9574 -0.580648L11.9112 -0.588147L11.8648 -0.594201L11.4766 2.38057ZM16.3386 8.21969L13.3392 8.15622L13.3386 8.18795V8.21969H16.3386ZM16.3386 13.5822L19.3385 13.5995L19.3386 13.5908V13.5822H16.3386ZM17.0297 15.2743L14.8998 17.387L14.9085 17.3958L14.9174 17.4046L17.0297 15.2743ZM18.4478 16.6805V19.6805H25.7339L20.5602 14.5502L18.4478 16.6805ZM22.9941 13.6236L20.8491 11.4667L16.5947 15.6976L18.7397 17.8545L22.9941 13.6236ZM21.7219 13.5822V8.26736H15.7219V13.5822H21.7219ZM21.7216 8.31073C21.7606 5.61286 20.8222 2.99198 19.0796 0.932024L14.4988 4.80708C15.3057 5.761 15.7403 6.97467 15.7222 8.22399L21.7216 8.31073ZM19.0796 0.932024C17.337 -1.12794 14.9079 -2.48785 12.2409 -2.89662L11.3319 3.03413C12.567 3.22342 13.6918 3.85316 14.4988 4.80708L19.0796 0.932024ZM12.1781 -2.90556C10.6229 -3.11038 9.04188 -2.98116 7.54055 -2.52653L9.27946 3.21596C9.96425 3.00859 10.6854 2.94966 11.3947 3.04307L12.1781 -2.90556ZM7.54055 -2.52653C6.03921 -2.0719 4.6521 -1.30232 3.47175 -0.269132L7.42362 4.24559C7.96199 3.77434 8.59468 3.42332 9.27946 3.21596L7.54055 -2.52653ZM3.47175 -0.269132C2.29141 0.764057 1.34498 2.03709 0.695615 3.46503L6.15738 5.94881C6.45357 5.2975 6.88525 4.71685 7.42362 4.24559L3.47175 -0.269132ZM0.695615 3.46503C0.0462491 4.89297 -0.291121 6.44298 -0.293984 8.01164L5.70601 8.02259C5.70731 7.3071 5.86119 6.60011 6.15738 5.94881L0.695615 3.46503ZM-0.293989 8.01711V13.5822H5.70601V8.01711H-0.293989ZM0.578822 11.4667L-1.56616 13.6236L2.68822 17.8545L4.8332 15.6976L0.578822 11.4667ZM-1.57776 13.6353C-2.26078 14.3298 -2.72395 15.2101 -2.90939 16.1663L2.98088 17.3086C2.94174 17.5104 2.84398 17.6962 2.69982 17.8428L-1.57776 13.6353ZM-2.90939 16.1663C-3.09482 17.1225 -2.99429 18.1121 -2.62035 19.0115L2.91987 16.708C2.9988 16.8979 3.02001 17.1067 2.98088 17.3086L-2.90939 16.1663ZM-2.62035 19.0115C-2.24642 19.9109 -1.61567 20.6801 -0.806971 21.2229L2.53713 16.2413C2.70782 16.3559 2.84095 16.5182 2.91987 16.708L-2.62035 19.0115ZM-0.806971 21.2229C0.00173034 21.7658 0.952511 22.0583 1.92651 22.0637L1.96019 16.0638C2.16577 16.065 2.36644 16.1267 2.53713 16.2413L-0.806971 21.2229ZM1.94335 22.0638H5.94732V16.0638H1.94335V22.0638ZM2.94732 19.0638V19.4689H8.94732V19.0638H2.94732ZM2.95049 19.6068C3.04264 21.6097 3.92501 23.4944 5.40424 24.8479L9.45458 20.4213C9.14687 20.1398 8.96332 19.7477 8.94415 19.3311L2.95049 19.6068ZM5.40424 24.8479C6.88348 26.2014 8.83893 26.9133 10.8421 26.8277L10.5858 20.8332C10.1691 20.851 9.7623 20.7029 9.45458 20.4213L5.40424 24.8479ZM10.5858 26.8277C12.589 26.9133 14.5444 26.2014 16.0237 24.8479L11.9733 20.4213C11.6656 20.7029 11.2588 20.851 10.8421 20.8332L10.5858 26.8277ZM16.0237 24.8479C17.5029 23.4944 18.3853 21.6097 18.4774 19.6068L12.4837 19.3311C12.4646 19.7477 12.281 20.1398 11.9733 20.4213L16.0237 24.8479ZM18.4806 19.4689V19.0638H12.4806V19.4689H18.4806ZM15.4806 22.0638H19.4845V16.0638H15.4806V22.0638ZM19.5014 22.0637C20.4754 22.0583 21.4262 21.7658 22.2349 21.2229L18.8908 16.2413C19.0615 16.1267 19.2621 16.065 19.4677 16.0638L19.5014 22.0637ZM22.2349 21.2229C23.0436 20.6801 23.6743 19.9109 24.0482 19.0115L18.508 16.708C18.587 16.5182 18.7201 16.3559 18.8908 16.2413L22.2349 21.2229ZM24.0482 19.0115C24.4222 18.1121 24.5227 17.1225 24.3373 16.1663L18.447 17.3086C18.4079 17.1067 18.4291 16.8979 18.508 16.708L24.0482 19.0115ZM24.3373 16.1663C24.1518 15.2101 23.6887 14.3298 23.0057 13.6353L18.7281 17.8428C18.5839 17.6962 18.4862 17.5104 18.447 17.3086L24.3373 16.1663ZM10.117 19.1253C10.1394 18.931 10.236 18.7527 10.3865 18.6278L14.2185 23.2447C15.257 22.3827 15.9229 21.1533 16.0775 19.8126L10.117 19.1253ZM10.3865 18.6278C10.5371 18.5028 10.73 18.4408 10.9252 18.4545L10.5027 24.4396C11.849 24.5347 13.18 24.1066 14.2185 23.2447L10.3865 18.6278ZM10.5027 18.4545C10.6979 18.4408 10.8908 18.5028 11.0414 18.6278L7.20937 23.2447C8.24789 24.1066 9.57892 24.5347 10.9252 24.4396L10.5027 18.4545ZM11.0414 18.6278C11.1919 18.7527 11.2885 18.931 11.3109 19.1253L5.35038 19.8126C5.50496 21.1533 6.17086 22.3827 7.20937 23.2447L11.0414 18.6278ZM11.3306 19.4689V19.0638H5.33063V19.4689H11.3306ZM8.33063 22.0638H13.0973V16.0638H8.33063V22.0638ZM10.0973 19.0638V19.4689H16.0973V19.0638H10.0973ZM5.10141 18.8018L6.50757 17.3956L2.26493 13.153L0.858771 14.5591L5.10141 18.8018ZM6.50125 17.4019C7.00504 16.9011 7.40473 16.3056 7.67729 15.6496L2.13653 13.3474C2.16775 13.2723 2.21354 13.2041 2.27125 13.1467L6.50125 17.4019ZM7.67729 15.6496C7.94985 14.9936 8.08989 14.2901 8.08932 13.5798L2.08933 13.5845C2.08926 13.5032 2.1053 13.4226 2.13653 13.3474L7.67729 15.6496ZM8.08932 13.5822V8.01711H2.08933V13.5822H8.08932ZM8.08932 8.01953C8.08963 7.64351 8.17036 7.2719 8.32611 6.92964L2.86496 4.44451C2.35478 5.56564 2.09032 6.78293 2.08933 8.01469L8.08932 8.01953ZM8.32611 6.92964C8.48185 6.58738 8.70901 6.2824 8.99232 6.03516L5.0473 1.51446C4.11923 2.32435 3.37514 3.32338 2.86496 4.44451L8.32611 6.92964ZM9.03414 5.99798C9.30955 5.74844 9.6359 5.56173 9.99059 5.45077L8.1992 -0.275567C7.01482 0.0949448 5.92511 0.718399 5.00548 1.55164L9.03414 5.99798ZM9.99059 5.45077C10.3453 5.33981 10.7199 5.30725 11.0884 5.35534L11.8648 -0.594201C10.6343 -0.754799 9.38357 -0.64608 8.1992 -0.275567L9.99059 5.45077ZM10.9958 5.34179C11.6601 5.44964 12.263 5.79383 12.6936 6.31098L17.3045 2.47172C15.9483 0.843009 14.0494 -0.240972 11.9574 -0.580648L10.9958 5.34179ZM12.6936 6.31098C13.1242 6.82812 13.3535 7.48342 13.3392 8.15622L19.3379 8.28316C19.3827 6.16424 18.6606 4.10044 17.3045 2.47172L12.6936 6.31098ZM13.3386 8.21969V13.5822H19.3386V8.21969H13.3386ZM13.3386 13.5648C13.3345 14.2733 13.4703 14.9756 13.7382 15.6315L19.2927 13.3627C19.3234 13.4379 19.339 13.5183 19.3385 13.5995L13.3386 13.5648ZM13.7382 15.6315C14.0061 16.2874 14.4008 16.8839 14.8998 17.387L19.1597 13.1617C19.2168 13.2193 19.2621 13.2876 19.2927 13.3627L13.7382 15.6315ZM14.9174 17.4046L16.3355 18.8107L20.5602 14.5502L19.1421 13.1441L14.9174 17.4046ZM18.4478 13.6805H2.98009V19.6805H18.4478V13.6805Z" fill="#627A69" mask="url(#path-1-inside-1_1_3045)"/>
</svg>
